<?xml version="1.0" encoding="UTF-8" standalone="no"?>
<svg
   viewBox="0 0 40 40"
   id="intel"
   version="1.1"
   sodipodi:docname="intel_icon_plain.svg"
   inkscape:version="1.2.2 (b0a8486541, 2022-12-01)"
   xmlns:inkscape="http://www.inkscape.org/namespaces/inkscape"
   xmlns:sodipodi="http://sodipodi.sourceforge.net/DTD/sodipodi-0.dtd"
   xmlns="http://www.w3.org/2000/svg"
   xmlns:svg="http://www.w3.org/2000/svg">
  <defs
     id="defs88" />
  <sodipodi:namedview
     id="namedview86"
     pagecolor="#505050"
     bordercolor="#ffffff"
     borderopacity="1"
     inkscape:showpageshadow="0"
     inkscape:pageopacity="0"
     inkscape:pagecheckerboard="1"
     inkscape:deskcolor="#505050"
     showgrid="false"
     inkscape:zoom="25"
     inkscape:cx="19.98"
     inkscape:cy="20"
     inkscape:window-width="1499"
     inkscape:window-height="1209"
     inkscape:window-x="2790"
     inkscape:window-y="116"
     inkscape:window-maximized="0"
     inkscape:current-layer="intel" />
  <path
     d="M9.36 14.92h1.55v1.49H9.36zM9.36 17.25h1.55v6.17a1.55 1.55 0 0 1-1.55-1.55v-4.62zm6.36 0h-3.45v6.12h1.56V18.5h1.43a.47.47 0 0 1 .46.46v4.41h1.55V18.8a1.56 1.56 0 0 0-1.55-1.55zm5.42 1.25v-1.25H20V15.6h-1.55v6.13a1.64 1.64 0 0 0 1.65 1.64h1v-1.29h-.77a.37.37 0 0 1-.37-.37V18.5zm6.72-3.8h1.55v8.61a1.55 1.55 0 0 1-1.55-1.55V14.7zM27 20.09s0-2.93-2.65-2.93-2.83 2.84-2.83 3.15a2.83 2.83 0 0 0 3 3.15 2.88 2.88 0 0 0 2.24-1l-1-.9a1.81 1.81 0 0 1-1.38.58 1.3 1.3 0 0 1-1.41-1.38H27zm-3.89-.36s0-1.3 1.18-1.3 1.18 1.3 1.18 1.3z"
     id="path81"
     style="fill:#ffffff" />
  <path
     d="M8.26 16.59v-.81S5 18.33 5 22.11s2.44 7.82 12.16 7.82a29.27 29.27 0 0 0 12.72-3.1v-2.27a29 29 0 0 1-12.78 3.35c-6.89 0-10.92-1.63-10.92-6.59a8.22 8.22 0 0 1 2.08-4.73zm3.28-2.38v-.57a25.5 25.5 0 0 1 13-3.57c7.56 0 10.51 3.64 10.51 6.67a7 7 0 0 1-4.53 6.63V21.7a5.79 5.79 0 0 0 3-5c0-3.48-4.28-6.09-11.11-5.54a28.86 28.86 0 0 0-10.87 3.05z"
     id="path83"
     style="fill:#ffffff" />
</svg>
