<?xml version="1.0" encoding="UTF-8" standalone="no"?>
<svg
   viewBox="0 0 48 48"
   width="96px"
   height="96px"
   version="1.1"
   id="svg284"
   sodipodi:docname="nvidia_icon_plain.svg"
   inkscape:version="1.2.2 (b0a8486541, 2022-12-01)"
   xmlns:inkscape="http://www.inkscape.org/namespaces/inkscape"
   xmlns:sodipodi="http://sodipodi.sourceforge.net/DTD/sodipodi-0.dtd"
   xmlns="http://www.w3.org/2000/svg"
   xmlns:svg="http://www.w3.org/2000/svg">
  <defs
     id="defs288" />
  <sodipodi:namedview
     id="namedview286"
     pagecolor="#505050"
     bordercolor="#ffffff"
     borderopacity="1"
     inkscape:showpageshadow="0"
     inkscape:pageopacity="0"
     inkscape:pagecheckerboard="1"
     inkscape:deskcolor="#505050"
     showgrid="false"
     inkscape:zoom="10.416667"
     inkscape:cx="47.952"
     inkscape:cy="48"
     inkscape:window-width="1499"
     inkscape:window-height="1209"
     inkscape:window-x="2626"
     inkscape:window-y="61"
     inkscape:window-maximized="0"
     inkscape:current-layer="svg284" />
  <path
     d="M 19.5 8 C 18.671 8 18 8.671 18 9.5 C 18 10.329 18.671 11 19.5 11 L 44 11 L 44 37 L 19.5 37 C 18.671 37 18 37.671 18 38.5 C 18 39.329 18.671 40 19.5 40 L 45.5 40 C 46.329 40 47 39.329 47 38.5 L 47 9.5 C 47 8.671 46.329 8 45.5 8 L 19.5 8 z M 20.001953 13.003906 C 19.695418 12.997815 19.38375 12.998984 19.070312 13.009766 L 18.287109 13.056641 L 18.287109 13.060547 C 9.4511094 13.783547 1.8222656 21.251953 1.8222656 21.251953 C 1.8222656 21.251953 6.1451094 33.766297 18.287109 34.904297 L 18.287109 34.90625 C 18.874109 34.97225 19.490469 35 20.105469 35 C 26.509469 35 37.807297 31.737828 42.654297 27.673828 C 41.937297 26.955828 38.478859 25.315766 37.630859 24.634766 C 32.531859 29.025766 27.263609 32.744141 19.974609 32.744141 C 19.424609 32.744141 18.837109 32.697812 18.287109 32.632812 L 18.287109 32.630859 C 9.3791094 31.524859 6.3398438 21.705078 6.3398438 21.705078 C 6.3398438 21.705078 10.323687 15.821125 18.304688 15.203125 L 18.304688 15.199219 C 18.560688 15.189219 18.814312 15.173828 19.070312 15.173828 C 26.285312 14.940828 31.011719 21.380859 31.011719 21.380859 C 31.011719 21.380859 25.912641 28.466797 20.431641 28.466797 C 19.704641 28.466797 18.967109 28.354859 18.287109 28.130859 L 18.287109 28.126953 C 14.500109 26.842953 13.248047 22.404297 13.248047 22.404297 C 13.248047 22.404297 15.459484 19.772281 18.271484 20.113281 L 18.287109 20.113281 L 18.287109 20.132812 C 21.093109 20.468812 21.681375 21.706484 23.359375 24.521484 L 27.115234 21.361328 C 27.115234 21.361328 24.365953 17.773438 19.751953 17.773438 C 19.266953 17.754438 18.772109 17.791891 18.287109 17.837891 C 12.923109 18.422891 9.6894531 21.998047 9.6894531 21.998047 C 9.6894531 21.998047 11.557109 29.004031 18.287109 30.207031 L 18.287109 30.189453 C 18.949109 30.301453 19.640313 30.367188 20.320312 30.367188 C 28.141313 30.367188 35.644531 21.232422 35.644531 21.232422 C 35.644531 21.232422 29.504556 13.192745 20.001953 13.003906 z"
     id="path282"
     style="fill:#ffffff" />
</svg>
